<?xml version="1.0" encoding="utf-8"?>
<!-- Generator: Adobe Illustrator 16.0.0, SVG Export Plug-In . SVG Version: 6.00 Build 0)  -->
<!DOCTYPE svg PUBLIC "-//W3C//DTD SVG 1.1//EN" "http://www.w3.org/Graphics/SVG/1.1/DTD/svg11.dtd">
<svg version="1.1" id="Layer_1" xmlns="http://www.w3.org/2000/svg" xmlns:xlink="http://www.w3.org/1999/xlink" x="0px" y="0px"
	 width="15px" height="16px" viewBox="0 0 15 16" style="enable-background:new 0 0 15 16;" xml:space="preserve">
<style type="text/css">
<![CDATA[
	.st0{fill:#007168;}
]]>
</style>
<g>
	<path class="st0" d="M7.5,7.9c2,0,3.6-1.8,3.6-3.9S9.5,0,7.5,0S3.9,1.8,3.9,3.9S5.5,7.9,7.5,7.9L7.5,7.9z M7.5,7.9"/>
	<path class="st0" d="M11.6,7.4c-0.2,0-0.4,0-0.5,0.2C9.8,9.6,7.7,9.7,7.5,9.7c-0.2,0-2.3-0.1-3.6-2.1C3.8,7.4,3.6,7.3,3.4,7.4
		C0.6,8-0.2,12.1,0,15.5c0,0.3,0.2,0.5,0.5,0.5h13.9c0.3,0,0.5-0.2,0.5-0.5C15.2,12.1,14.4,8,11.6,7.4L11.6,7.4z M11.6,7.4"/>
</g>
</svg>
