<?xml version="1.0" encoding="utf-8"?>
<!-- Generator: Adobe Illustrator 16.0.0, SVG Export Plug-In . SVG Version: 6.00 Build 0)  -->
<!DOCTYPE svg PUBLIC "-//W3C//DTD SVG 1.1//EN" "http://www.w3.org/Graphics/SVG/1.1/DTD/svg11.dtd">
<svg version="1.1" id="Layer_1" xmlns="http://www.w3.org/2000/svg" xmlns:xlink="http://www.w3.org/1999/xlink" x="0px" y="0px"
	 width="52px" height="60px" viewBox="0 0 52 60" style="enable-background:new 0 0 52 60;" xml:space="preserve">
<style type="text/css">
<![CDATA[
	.st0{fill:#007168;}
]]>
</style>
<path class="st0" d="M26,0L0,15v30l26,15l26-15V15L26,0z M51,44.4L26,58.8L1,44.4V15.6L26,1.2l25,14.4V44.4z"/>
<g>
	<path class="st0" d="M14.6,35.8c-0.1,0-0.1-0.1-0.1-0.2v-8.9c0-0.1,0-0.1,0.1-0.2c0.1,0,0.1,0,0.2,0l6.5,3.4c0.1,0,0.1,0.1,0.1,0.1
		c0,0.1,0,0.1-0.1,0.1l-6.5,5.5C14.8,35.8,14.8,35.8,14.6,35.8L14.6,35.8z"/>
	<path class="st0" d="M36.5,38.5H15.3c-0.1,0-0.2,0-0.4-0.1c-0.1,0-0.1-0.1-0.1-0.1c0-0.1,0-0.1,0.1-0.1l8.3-7
		c0.1-0.1,0.1-0.1,0.2,0l2.2,1.1c0.3,0.2,0.6,0.2,1,0l2.5-1.3c0.1-0.1,0.2-0.1,0.2,0l7.4,7.3c0,0.1,0.1,0.1,0,0.2
		C36.6,38.5,36.6,38.5,36.5,38.5z"/>
	<path class="st0" d="M37.5,36c0,0.1,0,0.1-0.1,0.2c0,0,0,0-0.1,0c0,0-0.1,0-0.1-0.1L31,30.1c0,0-0.1-0.1,0-0.1c0-0.1,0-0.1,0.1-0.1
		l6.2-3.3c0,0,0.1,0,0.2,0c0.1,0,0.1,0.1,0.1,0.2V36z"/>
	<path class="st0" d="M37.5,24.3c0,0.1-0.1,0.2-0.2,0.2c-0.1,0-0.2,0.1-0.3,0.1l-10.9,5.8c0,0,0,0-0.1,0c-0.1,0-0.1,0-0.1,0
		l-11.3-5.8c-0.1-0.1-0.1-0.1-0.1-0.2v-2.2c0-0.2,0.1-0.4,0.2-0.5c0.1-0.1,0.3-0.2,0.5-0.2h21.5c0.2,0,0.4,0.1,0.6,0.2
		c0.1,0.1,0.2,0.3,0.2,0.5V24.3z"/>
</g>
</svg>
