<?xml version="1.0" encoding="utf-8"?>
<!-- Generator: Adobe Illustrator 16.0.0, SVG Export Plug-In . SVG Version: 6.00 Build 0)  -->
<!DOCTYPE svg PUBLIC "-//W3C//DTD SVG 1.1//EN" "http://www.w3.org/Graphics/SVG/1.1/DTD/svg11.dtd">
<svg version="1.1" id="Layer_1" xmlns="http://www.w3.org/2000/svg" xmlns:xlink="http://www.w3.org/1999/xlink" x="0px" y="0px"
	 width="20px" height="18px" viewBox="0 0 20 18" enable-background="new 0 0 20 18" xml:space="preserve">
<g>
	<path fill="#007168" d="M1.906,2.018C0.713,3.218,0,4.888,0,6.483c0,1.638,0.633,3.177,1.783,4.333l2.73,2.743
		c0.395,0.399,1.035,0.399,1.43,0l0,0c0.396-0.396,0.396-1.04,0-1.437l-2.73-2.746c-0.768-0.771-1.19-1.799-1.19-2.894
		c0-1.053,0.505-2.213,1.315-3.028c0,0,0,0,0-0.001c0.834-0.836,2.113-1.421,3.111-1.421c1.09,0,2.111,0.425,2.879,1.196
		l7.816,7.858c0.537,0.54,0.832,1.257,0.832,2.022c0,0.764-0.295,1.48-0.83,2.019c0,0,0,0-0.002,0.002
		c-0.535,0.538-1.248,0.835-2.008,0.835c-0.002,0-0.004,0-0.004,0c-0.76,0-1.473-0.297-2.008-0.835L6.18,8.148
		C6.104,8.072,5.738,7.683,5.736,7.162c0-0.314,0.137-0.614,0.412-0.889c0.316-0.319,0.656-0.469,1.01-0.444
		C7.473,5.852,7.799,6.01,8.051,6.266l5.65,5.681c0.396,0.396,1.035,0.396,1.432,0c0.395-0.397,0.395-1.041,0-1.438l-5.65-5.682
		c-0.604-0.604-1.377-0.97-2.182-1.026C6.639,3.754,5.652,3.896,4.717,4.835C3.885,5.673,3.71,6.564,3.713,7.167
		C3.717,8.459,4.51,9.348,4.752,9.59l6.941,6.979C12.611,17.491,13.832,18,15.133,18h0.002c1.301,0,2.523-0.509,3.441-1.432l0,0
		C19.494,15.646,20,14.416,20,13.108s-0.506-2.535-1.424-3.458L10.76,1.792C9.609,0.636,8.078,0,6.449,0
		C4.91,0,3.127,0.791,1.908,2.016C1.908,2.018,1.908,2.018,1.906,2.018L1.906,2.018z M1.906,2.018"/>
</g>
</svg>
