<?xml version="1.0" encoding="utf-8"?>
<!-- Generator: Adobe Illustrator 16.0.0, SVG Export Plug-In . SVG Version: 6.00 Build 0)  -->
<!DOCTYPE svg PUBLIC "-//W3C//DTD SVG 1.1//EN" "http://www.w3.org/Graphics/SVG/1.1/DTD/svg11.dtd">
<svg version="1.1" id="Layer_1" xmlns="http://www.w3.org/2000/svg" xmlns:xlink="http://www.w3.org/1999/xlink" x="0px" y="0px"
	 width="52px" height="60px" viewBox="0 0 52 60" style="enable-background:new 0 0 52 60;" xml:space="preserve">
<style type="text/css">
<![CDATA[
	.st0{fill-rule:evenodd;clip-rule:evenodd;fill:#DDDDDD;}
	.st1{fill:#DDDDDD;}
]]>
</style>
<g>
	<path class="st1" d="M26,0L0,15v30l26,15l26-15V15L26,0z M51,44.4L26,58.8L1,44.4V15.6L26,1.2l25,14.4V44.4z"/>
	<polygon class="st0" points="11,40.1 12,40.1 12,31.8 14.8,31.8 14.8,40.1 15.1,40.1 15.1,26.9 19.2,28.8 19.2,40.1 19.9,40.1 
		19.9,23.9 21.3,21.4 21.9,21.4 22.1,20.1 22.4,18.5 22.6,20.1 22.8,21.4 23.5,21.4 25,23.9 25,40.1 26.2,40.1 26.2,30.2 29.9,30.2 
		29.9,25.3 33.8,25.3 33.8,40.1 34.9,40.1 34.9,30 40.1,30 40.1,40.1 41,40.1 41,41.5 11,41.5 	"/>
</g>
</svg>
