<?xml version="1.0" encoding="utf-8"?>
<!-- Generator: Adobe Illustrator 16.0.0, SVG Export Plug-In . SVG Version: 6.00 Build 0)  -->
<!DOCTYPE svg PUBLIC "-//W3C//DTD SVG 1.1//EN" "http://www.w3.org/Graphics/SVG/1.1/DTD/svg11.dtd">
<svg version="1.1" id="Layer_1" xmlns="http://www.w3.org/2000/svg" xmlns:xlink="http://www.w3.org/1999/xlink" x="0px" y="0px"
	 width="52px" height="60px" viewBox="0 0 52 60" style="enable-background:new 0 0 52 60;" xml:space="preserve">
<style type="text/css">
<![CDATA[
	.st0{fill:#DDDDDD;}
]]>
</style>
<g>
	<path class="st0" d="M26,0L0,15l0,30l26,15l26-15V15L26,0z M51,44.4L26,58.8L1,44.4l0-28.8L26,1.2l25,14.4V44.4z"/>
	<g>
		<path class="st0" d="M35.8,24.4l-5,13h9.9L35.8,24.4z M35.8,26.1l4,10.6h-8L35.8,26.1z"/>
		<path class="st0" d="M41,37.2c0,0.3-0.2,0.5-0.5,0.5h-9.3c-0.3,0-0.5-0.2-0.5-0.5l0,0c0-0.3,0.2-0.5,0.5-0.5h9.3
			C40.7,36.7,41,36.9,41,37.2L41,37.2z"/>
		<path class="st0" d="M40.7,37.6c0,1.5-2.2,2.7-5,2.7s-5-1.2-5-2.7H40.7z"/>
		<g>
			<path class="st0" d="M16.2,24.4l-5,13h9.9L16.2,24.4z M16.2,26.1l4,10.6h-8L16.2,26.1z"/>
			<path class="st0" d="M21.4,37.2c0,0.3-0.2,0.5-0.5,0.5h-9.3c-0.3,0-0.5-0.2-0.5-0.5l0,0c0-0.3,0.2-0.5,0.5-0.5h9.3
				C21.1,36.7,21.4,36.9,21.4,37.2L21.4,37.2z"/>
			<path class="st0" d="M21.1,37.6c0,1.5-2.2,2.7-5,2.7s-5-1.2-5-2.7H21.1z"/>
		</g>
		<g>
			<ellipse class="st0" cx="12.2" cy="22.5" rx="1.1" ry="1.2"/>
			<ellipse class="st0" cx="39.9" cy="22.5" rx="1.1" ry="1.2"/>
			<rect x="25.2" y="19.1" class="st0" width="1.6" height="21.2"/>
			<path class="st0" d="M20.4,43c0-1.3,2.5-3,5.7-3c3.1,0,5.7,1.7,5.7,3H20.4z"/>
			<path class="st0" d="M27.4,24.8c0,0.4-0.4,0.8-0.8,0.8h-1.1c-0.4,0-0.8-0.4-0.8-0.8v-3.5c0-0.4,0.4-0.8,0.8-0.8h1.1
				c0.4,0,0.8,0.4,0.8,0.8V24.8z"/>
			<path class="st0" d="M39.6,22.8c0,0.3-0.3,0.5-0.6,0.5H13c-0.3,0-0.6-0.2-0.6-0.5v-0.4c0-0.3,0.3-0.5,0.6-0.5h26
				c0.3,0,0.6,0.2,0.6,0.5V22.8z"/>
			<ellipse class="st0" cx="26" cy="18.3" rx="1.3" ry="1.3"/>
		</g>
	</g>
</g>
</svg>
