<?xml version="1.0" encoding="utf-8"?>
<!-- Generator: Adobe Illustrator 16.0.0, SVG Export Plug-In . SVG Version: 6.00 Build 0)  -->
<!DOCTYPE svg PUBLIC "-//W3C//DTD SVG 1.1//EN" "http://www.w3.org/Graphics/SVG/1.1/DTD/svg11.dtd">
<svg version="1.1" id="Layer_1" xmlns="http://www.w3.org/2000/svg" xmlns:xlink="http://www.w3.org/1999/xlink" x="0px" y="0px"
	 width="19px" height="22px" viewBox="0 0 19 22" style="enable-background:new 0 0 19 22;" xml:space="preserve">
<style type="text/css">
<![CDATA[
	.st0{fill:#FFFFFF;}
]]>
</style>
<path class="st0" d="M9.5,0L0,5.5v11L9.5,22l9.5-5.5v-11L9.5,0z M11.8,17c-0.6,0.2-1,0.4-1.4,0.5c-0.3,0.1-0.7,0.2-1.2,0.2
	c-0.7,0-1.2-0.2-1.6-0.5S7,16.4,7,15.9c0-0.2,0-0.4,0-0.6s0.1-0.4,0.1-0.7L8,12.1c0.1-0.2,0.1-0.5,0.2-0.7c0-0.2,0.1-0.4,0.1-0.6
	c0-0.3-0.1-0.5-0.2-0.7c-0.2,0-0.5-0.1-0.8-0.1c-0.2,0-0.4,0-0.6,0.1c-0.2,0.1-0.4,0.1-0.5,0.2l0.2-0.8C6.8,9.3,7.3,9.1,7.7,9
	c0.4-0.1,0.8-0.2,1.2-0.2c0.7,0,1.2,0.2,1.6,0.5C10.8,9.6,11,10,11,10.6c0,0.1,0,0.3,0,0.6c0,0.3-0.1,0.5-0.1,0.8l-0.7,2.5
	c-0.1,0.2-0.1,0.4-0.2,0.7c0,0.3-0.1,0.4-0.1,0.6c0,0.3,0.1,0.6,0.2,0.7c0.1,0.1,0.4,0.2,0.8,0.2c0.2,0,0.4,0,0.6-0.1
	c0.2-0.1,0.4-0.1,0.5-0.2L11.8,17z M11.7,6.9c-0.3,0.3-0.7,0.5-1.2,0.5S9.6,7.2,9.3,6.9C9,6.6,8.8,6.2,8.8,5.8C8.8,5.4,9,5,9.3,4.7
	c0.3-0.3,0.7-0.5,1.2-0.5s0.9,0.2,1.2,0.5C12,5,12.1,5.4,12.1,5.8C12.1,6.2,12,6.6,11.7,6.9z"/>
</svg>
