<?xml version="1.0" encoding="utf-8"?>
<!-- Generator: Adobe Illustrator 16.0.0, SVG Export Plug-In . SVG Version: 6.00 Build 0)  -->
<!DOCTYPE svg PUBLIC "-//W3C//DTD SVG 1.1//EN" "http://www.w3.org/Graphics/SVG/1.1/DTD/svg11.dtd">
<svg version="1.1" id="Layer_1" xmlns="http://www.w3.org/2000/svg" xmlns:xlink="http://www.w3.org/1999/xlink" x="0px" y="0px"
	 width="19px" height="22px" viewBox="0 0 19 22" style="enable-background:new 0 0 19 22;" xml:space="preserve">
<style type="text/css">
<![CDATA[
	.st0{fill:#DEDDDD;}
]]>
</style>
<path class="st0" d="M9.5,0L0,5.5v11L9.5,22l9.5-5.5v-11L9.5,0z M6.6,15.4H4.3v-7h2.3V15.4z M5.4,7.4L5.4,7.4
	c-0.8,0-1.3-0.5-1.3-1.2c0-0.7,0.5-1.2,1.3-1.2c0.8,0,1.3,0.5,1.3,1.2C6.7,6.8,6.2,7.4,5.4,7.4z M15,15.4h-2.3v-3.8
	c0-0.9-0.3-1.6-1.2-1.6c-0.6,0-1,0.4-1.2,0.9c-0.1,0.2-0.1,0.4-0.1,0.6v3.9H7.9c0,0,0-6.4,0-7h2.3v1c0.3-0.5,0.9-1.2,2.1-1.2
	c1.5,0,2.7,1,2.7,3.2V15.4z"/>
</svg>
