<?xml version="1.0" encoding="utf-8"?>
<!-- Generator: Adobe Illustrator 16.0.0, SVG Export Plug-In . SVG Version: 6.00 Build 0)  -->
<!DOCTYPE svg PUBLIC "-//W3C//DTD SVG 1.1//EN" "http://www.w3.org/Graphics/SVG/1.1/DTD/svg11.dtd">
<svg version="1.1" id="Layer_1" xmlns="http://www.w3.org/2000/svg" xmlns:xlink="http://www.w3.org/1999/xlink" x="0px" y="0px"
	 width="52px" height="60px" viewBox="0 0 52 60" enable-background="new 0 0 52 60" xml:space="preserve">
<path fill="#007168" d="M26,0L0,15v30l26,15l26-15V15L26,0z M51,44.422L26,58.846L1.001,44.422V15.577L26,1.155l25,14.423V44.422z"
	/>
<g>
	<path fill="#007168" d="M23.196,38.212c-4.679,1.287-9.653-1.875-10.546-6.648c-0.876-4.685,2.129-9.1,6.685-10.027
		c2.672-0.543,5.084,0.104,7.218,1.811c0.266,0.213,0.234,0.316,0.008,0.532c-0.694,0.646-1.363,1.317-2.032,1.986
		c-0.15,0.146-0.237,0.188-0.437,0.039c-3.072-2.289-7.418-0.554-8.017,3.235c-0.484,3.07,1.743,5.378,4.155,5.759
		c2.351,0.369,4.595-0.918,5.477-3.012c0.014-0.033,0.02-0.069,0.042-0.168c-1.478,0-2.922-0.011-4.371,0.006
		c-0.325,0.006-0.434-0.056-0.423-0.408c0.031-0.947,0.02-1.898,0.003-2.843c-0.003-0.258,0.045-0.353,0.33-0.353
		c2.613,0.011,5.228,0.011,7.841,0.002c0.246-0.002,0.336,0.081,0.369,0.311C30.215,32.935,27.596,37,23.196,38.212z"/>
	<path fill="#007168" d="M39.5,30.304c0.002,0.215-0.057,0.279-0.275,0.276c-0.793-0.014-1.588,0.012-2.377-0.014
		c-0.303-0.009-0.359,0.087-0.354,0.363c0.018,0.782-0.002,1.562,0.012,2.343c0.006,0.237-0.063,0.305-0.297,0.299
		c-0.525-0.022-1.053-0.022-1.576,0c-0.242,0.009-0.305-0.072-0.293-0.302c0.018-0.408,0.006-0.82,0.006-1.231
		c0-0.383-0.018-0.767,0.002-1.151c0.014-0.24-0.045-0.327-0.305-0.321c-0.795,0.022-1.59-0.003-2.381,0.017
		c-0.258,0.006-0.322-0.078-0.316-0.324c0.02-0.51,0.021-1.024,0-1.534c-0.012-0.269,0.086-0.315,0.324-0.313
		c0.795,0.014,1.59-0.006,2.381,0.011c0.238,0.006,0.303-0.062,0.301-0.297c-0.018-0.795,0-1.589-0.012-2.381
		c-0.006-0.229,0.025-0.339,0.299-0.327c0.537,0.024,1.078,0.017,1.615,0.002c0.201-0.005,0.254,0.06,0.252,0.258
		c-0.012,0.78,0.012,1.562-0.012,2.342c-0.012,0.309,0.063,0.42,0.389,0.409c0.781-0.028,1.564,0,2.342-0.017
		c0.225-0.003,0.277,0.066,0.275,0.279C39.482,29.229,39.482,29.766,39.5,30.304z"/>
</g>
</svg>
