<?xml version="1.0" encoding="utf-8"?>
<!-- Generator: Adobe Illustrator 16.0.0, SVG Export Plug-In . SVG Version: 6.00 Build 0)  -->
<!DOCTYPE svg PUBLIC "-//W3C//DTD SVG 1.1//EN" "http://www.w3.org/Graphics/SVG/1.1/DTD/svg11.dtd">
<svg version="1.1" id="Layer_1" xmlns="http://www.w3.org/2000/svg" xmlns:xlink="http://www.w3.org/1999/xlink" x="0px" y="0px"
	 width="20px" height="20px" viewBox="0 0 20 20" enable-background="new 0 0 20 20" xml:space="preserve">
<path fill="#007168" d="M19.435,15.716l-3.051-3.042c-0.608-0.603-1.613-0.584-2.242,0.043l-1.537,1.532
	c-0.098-0.053-0.198-0.109-0.304-0.169c-0.972-0.536-2.299-1.27-3.699-2.664c-1.402-1.398-2.14-2.725-2.679-3.693
	c-0.058-0.102-0.113-0.2-0.166-0.295L6.79,6.401l0.508-0.506c0.629-0.628,0.648-1.63,0.041-2.235L4.286,0.619
	C3.681,0.014,2.674,0.033,2.043,0.661L1.184,1.522l0.022,0.023c-0.288,0.367-0.528,0.79-0.707,1.246
	c-0.166,0.435-0.27,0.849-0.315,1.263c-0.404,3.329,1.123,6.371,5.264,10.5c5.726,5.704,10.341,5.275,10.542,5.253
	c0.433-0.051,0.849-0.154,1.271-0.317c0.453-0.177,0.877-0.416,1.244-0.703l0.019,0.017l0.872-0.851
	C20.023,17.324,20.042,16.322,19.435,15.716L19.435,15.716z M19.435,15.716"/>
</svg>
