<?xml version="1.0" encoding="utf-8"?>
<!-- Generator: Adobe Illustrator 16.0.0, SVG Export Plug-In . SVG Version: 6.00 Build 0)  -->
<!DOCTYPE svg PUBLIC "-//W3C//DTD SVG 1.1//EN" "http://www.w3.org/Graphics/SVG/1.1/DTD/svg11.dtd">
<svg version="1.1" id="Layer_1" xmlns="http://www.w3.org/2000/svg" xmlns:xlink="http://www.w3.org/1999/xlink" x="0px" y="0px"
	 width="52px" height="60px" viewBox="0 0 52 60" style="enable-background:new 0 0 52 60;" xml:space="preserve">
<style type="text/css">
<![CDATA[
	.st0{fill:#007168;}
]]>
</style>
<g>
	<path class="st0" d="M26,0L0,15v30l26,15l26-15V15L26,0z M51,44.4L26,58.8L1,44.4V15.6L26,1.2l25,14.4V44.4z"/>
	<g>
		<path class="st0" d="M27.4,25.8L27.4,25.8C27.4,25.8,27.4,25.8,27.4,25.8L27.4,25.8z"/>
		<rect x="14.8" y="23.7" class="st0" width="4.9" height="14.8"/>
		<path class="st0" d="M17.2,21.6L17.2,21.6c-1.7,0-2.8-1.1-2.8-2.6c0-1.5,1.1-2.6,2.8-2.6c1.7,0,2.7,1.1,2.8,2.6
			C20,20.5,19,21.6,17.2,21.6z"/>
		<path class="st0" d="M37.5,38.5h-4.9v-7.9c0-2-0.7-3.4-2.5-3.4c-1.4,0-2.2,0.9-2.5,1.8c-0.1,0.3-0.2,0.8-0.2,1.2v8.3h-4.9
			c0,0,0.1-13.4,0-14.8h4.9v2.1c0.7-1,1.8-2.5,4.4-2.5c3.2,0,5.7,2.1,5.7,6.7V38.5z"/>
	</g>
</g>
</svg>
