<?xml version="1.0" encoding="utf-8"?>
<!-- Generator: Adobe Illustrator 16.0.0, SVG Export Plug-In . SVG Version: 6.00 Build 0)  -->
<!DOCTYPE svg PUBLIC "-//W3C//DTD SVG 1.1//EN" "http://www.w3.org/Graphics/SVG/1.1/DTD/svg11.dtd">
<svg version="1.1" id="Layer_1" xmlns="http://www.w3.org/2000/svg" xmlns:xlink="http://www.w3.org/1999/xlink" x="0px" y="0px"
	 width="16px" height="21px" viewBox="0 0 16 21" style="enable-background:new 0 0 16 21;" xml:space="preserve">
<style type="text/css">
<![CDATA[
	.st0{fill:#DEDDDD;}
]]>
</style>
<g>
	<path class="st0" d="M8,0C3.6,0,0,3.5,0,7.7c0,1.1,0.2,2.2,0.7,3.2c2,4.2,5.8,8.7,7,10C7.7,20.9,7.9,21,8,21s0.3-0.1,0.3-0.2
		c1.1-1.3,5-5.7,7-10c0.5-1,0.7-2,0.7-3.2C16,3.5,12.4,0,8,0L8,0z M8,11.7c-2.3,0-4.2-1.8-4.2-4s1.9-4,4.2-4c2.3,0,4.2,1.8,4.2,4
		S10.3,11.7,8,11.7L8,11.7z M8,11.7"/>
</g>
</svg>
