<?xml version="1.0" encoding="utf-8"?>
<!-- Generator: Adobe Illustrator 16.0.0, SVG Export Plug-In . SVG Version: 6.00 Build 0)  -->
<!DOCTYPE svg PUBLIC "-//W3C//DTD SVG 1.1//EN" "http://www.w3.org/Graphics/SVG/1.1/DTD/svg11.dtd">
<svg version="1.1" id="Layer_1" xmlns="http://www.w3.org/2000/svg" xmlns:xlink="http://www.w3.org/1999/xlink" x="0px" y="0px"
	 width="23px" height="20px" viewBox="0 0 23 20" enable-background="new 0 0 23 20" xml:space="preserve">
<g>
	<path fill="#FFFFFF" d="M22.473,17.652l-3.315-2.467c-0.435,0.688-0.952,1.319-1.548,1.896c-0.047,0.047-0.1,0.095-0.149,0.144
		l3.37,2.506c0.245,0.183,0.533,0.27,0.82,0.27c0.404,0,0.807-0.176,1.07-0.514C23.175,18.916,23.063,18.094,22.473,17.652
		L22.473,17.652z"/>
	<path fill="#FFFFFF" d="M6.131,18.707c1.239,0.507,2.553,0.764,3.906,0.764c1.355,0,2.669-0.257,3.904-0.764
		c1.104-0.454,2.104-1.088,2.975-1.885c0.073-0.064,0.146-0.133,0.216-0.201c0.572-0.555,1.068-1.17,1.485-1.832
		c0.25-0.406,0.475-0.826,0.664-1.264c0.521-1.201,0.787-2.478,0.787-3.79s-0.266-2.589-0.787-3.789
		c-0.07-0.162-0.146-0.325-0.229-0.482c-0.484-0.966-1.132-1.844-1.925-2.614c-0.493-0.479-1.032-0.903-1.61-1.27
		c-0.498-0.317-1.025-0.589-1.578-0.817C12.701,0.257,11.387,0,10.034,0C8.679,0,7.365,0.257,6.129,0.765
		C5.586,0.987,5.068,1.254,4.577,1.564C3.989,1.933,3.441,2.362,2.939,2.85C2.148,3.617,1.503,4.494,1.015,5.463
		C0.937,5.62,0.857,5.782,0.788,5.945C0.264,7.147,0,8.422,0,9.734s0.264,2.59,0.788,3.788c0.505,1.162,1.228,2.201,2.151,3.098
		C3.862,17.512,4.936,18.214,6.131,18.707L6.131,18.707z M4.415,5.463C4.469,5.397,4.523,5.332,4.58,5.269
		C4.709,5.12,4.844,4.976,4.99,4.837c1.35-1.309,3.141-2.029,5.049-2.029c1.908,0,3.7,0.72,5.046,2.029
		c0.154,0.149,0.3,0.304,0.438,0.463c0.047,0.056,0.092,0.107,0.138,0.165c0.985,1.216,1.517,2.703,1.517,4.271
		c0,1.852-0.742,3.591-2.092,4.9c-1.35,1.31-3.141,2.029-5.046,2.029c-1.906,0-3.7-0.722-5.046-2.029
		c-1.35-1.31-2.092-3.049-2.092-4.9C2.898,8.166,3.433,6.678,4.415,5.463L4.415,5.463z"/>
</g>
</svg>
