<?xml version="1.0" encoding="utf-8"?>
<!-- Generator: Adobe Illustrator 16.0.0, SVG Export Plug-In . SVG Version: 6.00 Build 0)  -->
<!DOCTYPE svg PUBLIC "-//W3C//DTD SVG 1.1//EN" "http://www.w3.org/Graphics/SVG/1.1/DTD/svg11.dtd">
<svg version="1.1" id="Layer_1" xmlns="http://www.w3.org/2000/svg" xmlns:xlink="http://www.w3.org/1999/xlink" x="0px" y="0px"
	 width="20px" height="20px" viewBox="0 0 20 20" enable-background="new 0 0 20 20" xml:space="preserve">
<g>
	<path fill="#007168" d="M10,0C4.486,0,0,4.486,0,10s4.486,10,10,10c5.515,0,10-4.486,10-10S15.515,0,10,0L10,0z M10,17.872
		c-4.34,0-7.872-3.531-7.872-7.872S5.66,2.129,10,2.129c4.342,0,7.874,3.53,7.874,7.871S14.342,17.872,10,17.872L10,17.872z
		 M10,17.872"/>
	<path fill="#007168" d="M15.211,9.691h-4.494V4.288c0-0.454-0.368-0.823-0.823-0.823c-0.454,0-0.823,0.369-0.823,0.823v6.227
		c0,0.456,0.369,0.823,0.823,0.823h5.317c0.456,0,0.825-0.367,0.825-0.823C16.036,10.061,15.667,9.691,15.211,9.691L15.211,9.691z
		 M15.211,9.691"/>
</g>
</svg>
