<?xml version="1.0" encoding="utf-8"?>
<!-- Generator: Adobe Illustrator 16.0.0, SVG Export Plug-In . SVG Version: 6.00 Build 0)  -->
<!DOCTYPE svg PUBLIC "-//W3C//DTD SVG 1.1//EN" "http://www.w3.org/Graphics/SVG/1.1/DTD/svg11.dtd">
<svg version="1.1" id="Layer_1" xmlns="http://www.w3.org/2000/svg" xmlns:xlink="http://www.w3.org/1999/xlink" x="0px" y="0px"
	 width="15px" height="20px" viewBox="0 0 15 20" enable-background="new 0 0 15 20" xml:space="preserve">
<g>
	<path fill="#007168" d="M14.405,3.621l-3.144-3.045C10.934,0.259,10.299,0,9.845,0H0.824C0.37,0,0,0.375,0,0.835v18.333
		C0,19.628,0.37,20,0.824,20h13.352C14.631,20,15,19.628,15,19.168V5.031C15,4.571,14.732,3.941,14.405,3.621z M12.658,16.551
		c0,0.41-0.328,0.742-0.733,0.742H3.073c-0.405,0-0.731-0.332-0.731-0.742V3.45c0-0.409,0.327-0.742,0.731-0.742h6.051
		c0.404,0,0.733,0.333,0.733,0.742v1.232c0,0.408,0.327,0.742,0.731,0.742h1.336c0.405,0,0.733,0.332,0.733,0.741V16.551z"/>
	<path fill="#007168" d="M11.83,8.562"/>
	<g>
		<path fill="#007168" d="M10.534,8.562H4.465c-0.339,0-0.616-0.28-0.616-0.625c0-0.346,0.277-0.624,0.616-0.624h6.069
			c0.34,0,0.616,0.278,0.616,0.624C11.15,8.281,10.874,8.562,10.534,8.562L10.534,8.562z"/>
		<path fill="#007168" d="M10.534,11.549H4.465c-0.339,0-0.616-0.281-0.616-0.627c0-0.344,0.277-0.625,0.616-0.625h6.069
			c0.34,0,0.616,0.281,0.616,0.625C11.15,11.268,10.874,11.549,10.534,11.549L10.534,11.549z M10.534,11.549"/>
		<path fill="#007168" d="M9.307,14.533H5.691c-0.34,0-0.617-0.278-0.617-0.624c0-0.345,0.277-0.625,0.617-0.625h3.615
			c0.342,0,0.616,0.28,0.616,0.625C9.923,14.255,9.648,14.533,9.307,14.533L9.307,14.533z M9.307,14.533"/>
	</g>
	<path fill="#007168" d="M13.248,17.123"/>
</g>
</svg>
