<?xml version="1.0" encoding="utf-8"?>
<!-- Generator: Adobe Illustrator 16.0.0, SVG Export Plug-In . SVG Version: 6.00 Build 0)  -->
<!DOCTYPE svg PUBLIC "-//W3C//DTD SVG 1.1//EN" "http://www.w3.org/Graphics/SVG/1.1/DTD/svg11.dtd">
<svg version="1.1" id="Layer_1" xmlns="http://www.w3.org/2000/svg" xmlns:xlink="http://www.w3.org/1999/xlink" x="0px" y="0px"
	 width="17px" height="16px" viewBox="0 0 17 16" style="enable-background:new 0 0 17 16;" xml:space="preserve">
<style type="text/css">
<![CDATA[
	.st0{fill:#007168;}
]]>
</style>
<g>
	<path class="st0" d="M4.2,3.7h0.2c0.4,0,0.7-0.3,0.7-0.6V0.7C5.1,0.3,4.8,0,4.4,0H4.2C3.8,0,3.5,0.3,3.5,0.7v2.4
		C3.5,3.4,3.8,3.7,4.2,3.7L4.2,3.7z M4.2,3.7"/>
	<path class="st0" d="M12.7,3.7H13c0.4,0,0.7-0.3,0.7-0.6V0.6C13.7,0.3,13.4,0,13,0h-0.2c-0.4,0-0.7,0.3-0.7,0.6v2.4
		C12.1,3.4,12.4,3.7,12.7,3.7L12.7,3.7z M12.7,3.7"/>
	<path class="st0" d="M15.9,1.3h-1.7v1.9c0,0.6-0.5,1-1.2,1h-0.2c-0.7,0-1.2-0.5-1.2-1.2V1.3H5.6v1.8c0,0.6-0.5,1.2-1.2,1.2H4.2
		c-0.7,0-1.2-0.5-1.2-1.2V1.3H1.1C0.5,1.3,0,1.8,0,2.4V15c0,0.6,0.5,1,1.1,1h14.8c0.6,0,1.1-0.5,1.1-1V2.4C17,1.8,16.5,1.3,15.9,1.3
		z M14.7,14.1H2.3V6h12.5V14.1C14.8,14.1,14.8,14.1,14.7,14.1z"/>
	<path class="st0" d="M15.9,15"/>
	<g>
		<path class="st0" d="M9,8.5h1.7c0.1,0,0.1-0.1,0.1-0.1V7c0-0.1-0.1-0.1-0.1-0.1H9C9,6.9,8.9,6.9,8.9,7v1.4C8.9,8.5,9,8.5,9,8.5
			L9,8.5z M9,8.5"/>
		<path class="st0" d="M11.8,8.5h1.7c0.1,0,0.1-0.1,0.1-0.1V7c0-0.1-0.1-0.1-0.1-0.1h-1.7c-0.1,0-0.1,0.1-0.1,0.1v1.4
			C11.7,8.5,11.7,8.5,11.8,8.5L11.8,8.5z M11.8,8.5"/>
		<path class="st0" d="M3.5,10.8h1.7c0.1,0,0.1-0.1,0.1-0.1V9.3c0-0.1-0.1-0.1-0.1-0.1H3.5c-0.1,0-0.1,0.1-0.1,0.1v1.4
			C3.4,10.8,3.4,10.8,3.5,10.8L3.5,10.8z M3.5,10.8"/>
		<path class="st0" d="M6.3,10.8H8c0.1,0,0.1-0.1,0.1-0.1V9.3C8.1,9.2,8,9.2,8,9.2H6.3c-0.1,0-0.1,0.1-0.1,0.1v1.4
			C6.2,10.8,6.2,10.8,6.3,10.8L6.3,10.8z M6.3,10.8"/>
		<path class="st0" d="M9,10.8h1.7c0.1,0,0.1-0.1,0.1-0.1V9.3c0-0.1-0.1-0.1-0.1-0.1H9C9,9.2,8.9,9.2,8.9,9.3v1.4
			C8.9,10.8,9,10.8,9,10.8L9,10.8z M9,10.8"/>
		<path class="st0" d="M11.8,10.8h1.7c0.1,0,0.1-0.1,0.1-0.1V9.3c0-0.1-0.1-0.1-0.1-0.1h-1.7c-0.1,0-0.1,0.1-0.1,0.1v1.4
			C11.7,10.8,11.7,10.8,11.8,10.8L11.8,10.8z M11.8,10.8"/>
		<path class="st0" d="M5.2,11.5H3.5c-0.1,0-0.1,0.1-0.1,0.1V13c0,0.1,0.1,0.1,0.1,0.1h1.7c0.1,0,0.1-0.1,0.1-0.1v-1.4
			C5.3,11.5,5.3,11.5,5.2,11.5L5.2,11.5z M5.2,11.5"/>
		<path class="st0" d="M8,11.5H6.3c-0.1,0-0.1,0.1-0.1,0.1V13c0,0.1,0.1,0.1,0.1,0.1H8c0.1,0,0.1-0.1,0.1-0.1v-1.4
			C8.1,11.5,8,11.5,8,11.5L8,11.5z M8,11.5"/>
		<path class="st0" d="M10.7,11.5H9c-0.1,0-0.1,0.1-0.1,0.1V13c0,0.1,0.1,0.1,0.1,0.1h1.7c0.1,0,0.1-0.1,0.1-0.1v-1.4
			C10.9,11.5,10.8,11.5,10.7,11.5L10.7,11.5z M10.7,11.5"/>
		<path class="st0" d="M13.5,11.5h-1.7c-0.1,0-0.1,0.1-0.1,0.1V13c0,0.1,0.1,0.1,0.1,0.1h1.7c0.1,0,0.1-0.1,0.1-0.1v-1.4
			C13.6,11.5,13.6,11.5,13.5,11.5L13.5,11.5z M13.5,11.5"/>
	</g>
</g>
</svg>
