<?xml version="1.0" encoding="utf-8"?>
<!-- Generator: Adobe Illustrator 16.0.0, SVG Export Plug-In . SVG Version: 6.00 Build 0)  -->
<!DOCTYPE svg PUBLIC "-//W3C//DTD SVG 1.1//EN" "http://www.w3.org/Graphics/SVG/1.1/DTD/svg11.dtd">
<svg version="1.1" id="Layer_1" xmlns="http://www.w3.org/2000/svg" xmlns:xlink="http://www.w3.org/1999/xlink" x="0px" y="0px"
	 width="23px" height="16px" viewBox="0 0 23 16" style="enable-background:new 0 0 23 16;" xml:space="preserve">
<style type="text/css">
<![CDATA[
	.st0{fill:#007168;}
]]>
</style>
<path class="st0" d="M22.8,4.8c-0.2-0.2-0.5-0.4-0.8-0.4h-4.3l-0.3-2.1c-0.1-0.4-0.5-0.8-0.9-0.8h-5.3l-0.5-1C10.7,0.2,10.3,0,10,0
	h-9C0.7,0,0.4,0.1,0.2,0.3C0.1,0.5,0,0.8,0,1l2,14.2v0c0,0.1,0.1,0.2,0.1,0.4c0,0,0,0,0,0c0,0,0,0,0.1,0c0.1,0.1,0.1,0.1,0.2,0.2
	c0,0,0.1,0,0.1,0.1C2.6,16,2.8,16,2.9,16h15.5c0.4,0,0.7-0.2,0.9-0.6l3.7-9.8C23,5.4,23,5.1,22.8,4.8L22.8,4.8z M9.4,1.8l0.5,1
	c0.1,0.3,0.5,0.5,0.8,0.5h5.1L16,4.4H6.6C6.2,4.4,5.8,4.7,5.7,5l-2.4,6.4L2,1.8H9.4z M17.8,14.2H4.2l3-8h13.6L17.8,14.2z M17.8,14.2
	"/>
</svg>
