<?xml version="1.0" encoding="utf-8"?>
<!-- Generator: Adobe Illustrator 16.0.0, SVG Export Plug-In . SVG Version: 6.00 Build 0)  -->
<!DOCTYPE svg PUBLIC "-//W3C//DTD SVG 1.1//EN" "http://www.w3.org/Graphics/SVG/1.1/DTD/svg11.dtd">
<svg version="1.1" id="Layer_1" xmlns="http://www.w3.org/2000/svg" xmlns:xlink="http://www.w3.org/1999/xlink" x="0px" y="0px"
	 width="52px" height="60px" viewBox="0 0 52 60" style="enable-background:new 0 0 52 60;" xml:space="preserve">
<style type="text/css">
<![CDATA[
	.st0{fill:#DDDDDD;}
]]>
</style>
<g>
	<g>
		<path class="st0" d="M32.7,26.6c-1.6-1.6-2.2-3.8-2.5-5.1h-8.3c-0.3,1.4-0.9,3.5-2.5,5.2C16.8,29.3,16,30,16,30s1.8,1.9,4,4.7
			c2.2,2.8,5,11.2,5,11.2l0-11.7c-0.8-0.4-1.3-1.2-1.3-2.1c0-1.3,1-2.3,2.3-2.3c1.2,0,2.3,1,2.3,2.3c0,0.9-0.5,1.7-1.3,2.1L27,46
			c0,0,2.8-8.4,5-11.3c2.2-2.8,4-4.8,4-4.8S35.2,29.2,32.7,26.6z"/>
		
			<rect x="21.3" y="16" transform="matrix(-1 -5.742629e-004 5.742629e-004 -1 51.9407 36.3499)" class="st0" width="9.4" height="4.3"/>
	</g>
	<path class="st0" d="M26,0L0,15l0,30l26,15l26-15V15L26,0z M51,44.4L26,58.8L1,44.4l0-28.8L26,1.2l25,14.4V44.4z"/>
</g>
</svg>
