<?xml version="1.0" encoding="utf-8"?>
<!-- Generator: Adobe Illustrator 16.0.0, SVG Export Plug-In . SVG Version: 6.00 Build 0)  -->
<!DOCTYPE svg PUBLIC "-//W3C//DTD SVG 1.1//EN" "http://www.w3.org/Graphics/SVG/1.1/DTD/svg11.dtd">
<svg version="1.1" id="Layer_1" xmlns="http://www.w3.org/2000/svg" xmlns:xlink="http://www.w3.org/1999/xlink" x="0px" y="0px"
	 width="20px" height="20px" viewBox="0 0 20 20" enable-background="new 0 0 20 20" xml:space="preserve">
<g>
	<path fill="#007168" d="M19.005,18.091H0.984c-0.497,0-0.9,0.402-0.9,0.9c0,0.496,0.404,0.898,0.9,0.898h18.021
		c0.499,0,0.903-0.402,0.903-0.898C19.906,18.493,19.504,18.091,19.005,18.091L19.005,18.091z M19.005,18.091"/>
	<path fill="#007168" d="M2.111,15.753c-0.499,0-0.9,0.404-0.9,0.898c0,0.498,0.402,0.9,0.9,0.9h15.768
		c0.499,0,0.902-0.402,0.902-0.9c0-0.494-0.404-0.898-0.902-0.898h-0.226V7.662h0.226c0.249,0,0.451-0.201,0.451-0.45
		c0-0.247-0.202-0.448-0.451-0.448H2.111c-0.25,0-0.449,0.201-0.449,0.448c0,0.249,0.2,0.45,0.449,0.45h0.225v8.091H2.111z
		 M15.852,7.662v8.091h-2.703V7.662H15.852z M11.348,7.662v8.091H8.645V7.662H11.348z M4.138,7.662h2.704v8.091H4.138V7.662z
		 M4.138,7.662"/>
	<path fill="#007168" d="M0.984,5.956h18.029c0.499,0,0.902-0.403,0.902-0.9c0-0.395-0.255-0.73-0.61-0.851l-8.94-4.016
		c-0.236-0.105-0.503-0.105-0.738,0L0.616,4.235C0.229,4.41,0.014,4.832,0.104,5.245C0.193,5.66,0.561,5.956,0.984,5.956
		L0.984,5.956z M0.984,5.956"/>
</g>
</svg>
