<?xml version="1.0" encoding="utf-8"?>
<!-- Generator: Adobe Illustrator 16.0.0, SVG Export Plug-In . SVG Version: 6.00 Build 0)  -->
<!DOCTYPE svg PUBLIC "-//W3C//DTD SVG 1.1//EN" "http://www.w3.org/Graphics/SVG/1.1/DTD/svg11.dtd">
<svg version="1.1" id="Layer_1" xmlns="http://www.w3.org/2000/svg" xmlns:xlink="http://www.w3.org/1999/xlink" x="0px" y="0px"
	 width="19px" height="22px" viewBox="0 0 19 22" style="enable-background:new 0 0 19 22;" xml:space="preserve">
<style type="text/css">
<![CDATA[
	.st0{fill:#FFFFFF;}
]]>
</style>
<path class="st0" d="M9.5,0L0,5.5v11L9.5,22l9.5-5.5v-11L9.5,0z M8.1,15.1c-2.4,0.7-4.9-1-5.4-3.4C2.2,9.3,3.7,7,6.1,6.6
	c1.4-0.3,2.6,0.1,3.7,0.9c0.1,0.1,0.1,0.2,0,0.3c-0.4,0.3-0.7,0.7-1,1c-0.1,0.1-0.1,0.1-0.2,0C7,7.6,4.8,8.5,4.5,10.5
	c-0.2,1.6,0.9,2.8,2.1,3C7.8,13.7,9,13,9.4,12c0,0,0,0,0-0.1c-0.8,0-1.5,0-2.2,0c-0.2,0-0.2,0-0.2-0.2c0-0.5,0-1,0-1.5
	C7,10.1,7,10,7.2,10c1.3,0,2.7,0,4,0c0.1,0,0.2,0,0.2,0.2C11.7,12.4,10.3,14.5,8.1,15.1z M16.4,11.1c0,0.1,0,0.1-0.1,0.1
	c-0.4,0-0.8,0-1.2,0c-0.2,0-0.2,0-0.2,0.2c0,0.4,0,0.8,0,1.2c0,0.1,0,0.2-0.2,0.2c-0.3,0-0.5,0-0.8,0c-0.1,0-0.2,0-0.2-0.2
	c0-0.2,0-0.4,0-0.6s0-0.4,0-0.6c0-0.1,0-0.2-0.2-0.2c-0.4,0-0.8,0-1.2,0c-0.1,0-0.2,0-0.2-0.2c0-0.3,0-0.5,0-0.8
	c0-0.1,0-0.2,0.2-0.2c0.4,0,0.8,0,1.2,0c0.1,0,0.2,0,0.2-0.2c0-0.4,0-0.8,0-1.2c0-0.1,0-0.2,0.2-0.2c0.3,0,0.6,0,0.8,0
	c0.1,0,0.1,0,0.1,0.1c0,0.4,0,0.8,0,1.2c0,0.2,0,0.2,0.2,0.2c0.4,0,0.8,0,1.2,0c0.1,0,0.1,0,0.1,0.1C16.4,10.5,16.4,10.8,16.4,11.1z
	"/>
</svg>
