<?xml version="1.0" encoding="utf-8"?>
<!-- Generator: Adobe Illustrator 16.0.0, SVG Export Plug-In . SVG Version: 6.00 Build 0)  -->
<!DOCTYPE svg PUBLIC "-//W3C//DTD SVG 1.1//EN" "http://www.w3.org/Graphics/SVG/1.1/DTD/svg11.dtd">
<svg version="1.1" id="Layer_1" xmlns="http://www.w3.org/2000/svg" xmlns:xlink="http://www.w3.org/1999/xlink" x="0px" y="0px"
	 width="20px" height="20px" viewBox="0 0 20 20" enable-background="new 0 0 20 20" xml:space="preserve">
<g>
	<path fill="#007168" d="M3.001,2.857c6.273,1.854,12.045,5.376,16.552,10.12C19.847,12.039,20,11.036,20,10
		C20,4.482,15.526,0,9.995,0C7.277,0,4.801,1.091,3.001,2.857L3.001,2.857z M3.001,2.857"/>
	<path fill="#007168" d="M1.43,4.842C0.523,6.347,0,8.113,0,10c0,5.518,4.474,10,10.005,10c3.59,0,6.732-1.887,8.5-4.732
		C13.944,10.229,7.998,6.587,1.43,4.842L1.43,4.842z M1.43,4.842"/>
</g>
</svg>
