<?xml version="1.0" encoding="utf-8"?>
<!-- Generator: Adobe Illustrator 16.0.0, SVG Export Plug-In . SVG Version: 6.00 Build 0)  -->
<!DOCTYPE svg PUBLIC "-//W3C//DTD SVG 1.1//EN" "http://www.w3.org/Graphics/SVG/1.1/DTD/svg11.dtd">
<svg version="1.1" id="Layer_1" xmlns="http://www.w3.org/2000/svg" xmlns:xlink="http://www.w3.org/1999/xlink" x="0px" y="0px"
	 width="26px" height="16px" viewBox="0 0 26 16" enable-background="new 0 0 26 16" xml:space="preserve">
<path fill="#007168" d="M22.722,6.685C22.725,6.587,22.75,6.497,22.75,6.4c0-3.534-2.91-6.4-6.5-6.4
	c-2.435,0-4.531,1.334-5.645,3.284C10.328,3.236,10.043,3.2,9.75,3.2c-2.129,0-3.921,1.353-4.584,3.228
	C5.069,6.422,4.975,6.4,4.875,6.4C2.184,6.4,0,8.55,0,11.2C0,13.85,2.184,16,4.875,16h16.25C23.816,16,26,13.85,26,11.2
	C26,9.104,24.626,7.337,22.722,6.685z M21.125,13.5H4.875c-1.288,0-2.336-1.032-2.336-2.3c0-1.236,0.996-2.248,2.239-2.299
	c0.059,0.008,0.133,0.016,0.217,0.021L6.927,9.05L7.563,7.25C7.891,6.323,8.77,5.7,9.75,5.7c0.102,0,0.232,0.014,0.411,0.045
	l1.774,0.311l0.884-1.546C13.537,3.251,14.82,2.5,16.25,2.5c2.146,0,3.9,1.69,3.959,3.79c-0.01,0.08-0.021,0.188-0.025,0.313
	L20.123,8.44l1.763,0.604c0.942,0.323,1.575,1.189,1.575,2.155C23.461,12.468,22.413,13.5,21.125,13.5z"/>
</svg>
