<?xml version="1.0" encoding="utf-8"?>
<!-- Generator: Adobe Illustrator 16.0.0, SVG Export Plug-In . SVG Version: 6.00 Build 0)  -->
<!DOCTYPE svg PUBLIC "-//W3C//DTD SVG 1.1//EN" "http://www.w3.org/Graphics/SVG/1.1/DTD/svg11.dtd">
<svg version="1.1" id="Layer_1" xmlns="http://www.w3.org/2000/svg" xmlns:xlink="http://www.w3.org/1999/xlink" x="0px" y="0px"
	 width="52px" height="60px" viewBox="0 0 52 60" style="enable-background:new 0 0 52 60;" xml:space="preserve">
<style type="text/css">
<![CDATA[
	.st0{fill:#DDDDDD;}
]]>
</style>
<g>
	<path class="st0" d="M26,0L0,15l0,30l26,15l26-15V15L26,0z M51,44.4L26,58.8L1,44.4l0-28.8L26,1.2l25,14.4V44.4z"/>
	<g>
		<path class="st0" d="M32.8,37.9c-5.5,6.4-11.1,2.8-13,1.3c1.4-1.5,2.1-2.3,4.5-4.3c2.6,1,7.1-0.9,7.1-0.9
			c-3.1,0.8-5.4,0.3-6.3,0.1c0.2-0.1,3.2-2.3,4.1-3.5c2.5,0.1,4.6-2.1,4.6-2.1c-0.1-0.1-1.3,0.9-3.8,1c2.5-3.6,2.4-6.9,2.4-6.9
			s-0.9,3-3.3,6.3c-0.5-2.4,0.1-4,0.1-4c0,0-1.6,2.6-0.9,5.1c-1.3,1.5-3.3,2.7-4.1,3.3c-0.1-0.2-0.8-2.7-0.1-6.4
			c0,0-2.1,4.7-0.8,7.1c-1.6,1.2-2,1.5-4.7,4.4c-6-4.4-0.8-12.2,3.6-14.1c4.6-1.9,6.5-1.5,10.8-8.3C38,22.7,37.2,32.7,32.8,37.9
			L32.8,37.9z"/>
		<path class="st0" d="M19.8,39.2"/>
		<path class="st0" d="M17.7,44.3c0.2-2.1,0.6-3.6,2.2-5.1c0,0-0.9-0.8-0.9-0.8c-2.3,2.4-3.2,5-3.4,7.6C16.6,46,17.6,45,17.7,44.3z"
			/>
	</g>
</g>
</svg>
