<?xml version="1.0" encoding="utf-8"?>
<!-- Generator: Adobe Illustrator 16.0.0, SVG Export Plug-In . SVG Version: 6.00 Build 0)  -->
<!DOCTYPE svg PUBLIC "-//W3C//DTD SVG 1.1//EN" "http://www.w3.org/Graphics/SVG/1.1/DTD/svg11.dtd">
<svg version="1.1" id="Layer_1" xmlns="http://www.w3.org/2000/svg" xmlns:xlink="http://www.w3.org/1999/xlink" x="0px" y="0px"
	 width="52px" height="60px" viewBox="0 0 52 60" style="enable-background:new 0 0 52 60;" xml:space="preserve">
<style type="text/css">
<![CDATA[
	.st0{fill:#DDDDDD;}
]]>
</style>
<g>
	<path class="st0" d="M26,0L0,15l0,30l26,15l26-15V15L26,0z M51,44.4L26,58.8L1,44.4l0-28.8L26,1.2l25,14.4V44.4z"/>
	<path class="st0" d="M37.5,26.9h-6.8L30.3,24l3.8-1.9l0.5-0.2v-2.5h-5.1l-0.4-2.6L28.9,16h-5.7l-0.1,0.7l-0.4,2.6h-5.2v2.5l0.5,0.2
		l4,1.9l-0.5,2.9h-7v2.9L15,30l5.5,2.7l-1.3,8h-4.5V44h22.6v-3.3H33l-1.3-8l5.8-2.9V26.9z M28.2,38.3L21,40.4l0.5-3.1h9.2l0,0.2
		L28.2,38.3z M24.7,35.9l5.4-2.4l0.4,2.4H24.7z M30.9,21.1l0.1,0.6L30,22.2l-0.2-1.1H30.9z M24.7,17.7h2.7l0.3,1.6h-3.3L24.7,17.7z
		 M24.2,21.1H28l0.2,1.5h-4.3L24.2,21.1z M23.7,24.3h4.9l0.4,2.6h-5.7L23.7,24.3z M22.9,28.6h6.3l0.4,2.7h-7.2L22.9,28.6z M21,21.7
		l0.1-0.6h1.3l-0.2,1.2L21,21.7z M22.2,33H28l-6.3,2.7L22.2,33z M17.2,29.2l0.1-0.6h3.8l-0.4,2.3L17.2,29.2z M25,40.7l5.9-2l0.3,2
		H25z M31.4,30.9L31,28.6h3.7l0.1,0.6L31.4,30.9z"/>
</g>
</svg>
