<?xml version="1.0" encoding="utf-8"?>
<!-- Generator: Adobe Illustrator 16.0.0, SVG Export Plug-In . SVG Version: 6.00 Build 0)  -->
<!DOCTYPE svg PUBLIC "-//W3C//DTD SVG 1.1//EN" "http://www.w3.org/Graphics/SVG/1.1/DTD/svg11.dtd">
<svg version="1.1" id="Layer_1" xmlns="http://www.w3.org/2000/svg" xmlns:xlink="http://www.w3.org/1999/xlink" x="0px" y="0px"
	 width="193px" height="60px" viewBox="0 0 193 60" style="enable-background:new 0 0 193 60;" xml:space="preserve">
<style type="text/css">
<![CDATA[
	.st0{fill:#FFFFFF;}
]]>
</style>
<g>
	<g>
		<g>
			<path class="st0" d="M88.3,9.4h10.2c3.2,0,5.6,0.9,7.1,2.4c1.1,1.2,1.8,2.8,1.8,4.6v0.1c0,4.2-3.2,6.6-7.8,7l8.3,10.7h-1.5
				l-8.1-10.6h-8.8v10.6h-1.2V9.4z M98.2,22.5c5.1,0,8-2.5,8-6v-0.1c0-3.7-2.9-6-7.8-6h-9v12H98.2z"/>
			<path class="st0" d="M115.7,9.4h10.2c2.8,0,5.1,0.8,6.5,2.2c1,1,1.6,2.4,1.6,4v0.1c0,3.2-2.1,5.2-4.6,5.9
				c3.3,0.6,5.9,2.7,5.9,6.1v0.1c0,4.1-3.4,6.6-8.9,6.6h-10.7V9.4z M126.1,21.1c3.7,0,6.6-1.8,6.6-5.4v-0.1c0-3.1-2.6-5.2-6.9-5.2
				h-9v10.6H126.1z M126.5,33.1c4.8,0,7.6-2.1,7.6-5.4v-0.1c0-3.5-3.1-5.4-7.5-5.4h-9.7v10.9H126.5z"/>
			<path class="st0" d="M142,21.9L142,21.9c0-6.7,4.8-12.9,12.3-12.9c3.9,0,6.3,1.2,8.8,3.2l-0.8,0.9c-2.2-1.8-4.4-3-8.1-3
				c-6.6,0-10.9,5.6-10.9,11.7v0.1c0,6.4,4.1,11.7,11.1,11.7c3.5,0,6.5-1.5,8.5-3.2v-7.6H154v-1.2h10v9.2c-2.3,2.1-5.7,3.8-9.7,3.8
				C146.5,34.6,142,28.8,142,21.9z"/>
			<path class="st0" d="M169.6,9.4h1.3l10.3,23.5l10.3-23.5h1.2l-11.1,25h-1L169.6,9.4z"/>
		</g>
		<path class="st0" d="M92,42.6h0.9l3.8,8.4h-1l-1-2.2h-4.5l-1,2.2h-1L92,42.6z M94.3,48l-1.9-4.2L90.6,48H94.3z"/>
		<path class="st0" d="M100.2,42.7h2.9c2.6,0,4.4,1.8,4.4,4.1v0c0,2.3-1.8,4.1-4.4,4.1h-2.9V42.7z M103.1,50.1
			c2.1,0,3.4-1.4,3.4-3.3v0c0-1.8-1.3-3.3-3.4-3.3h-1.9v6.6H103.1z"/>
		<path class="st0" d="M111,42.7h1l3,7.1l3-7.1h1l-3.6,8.4h-0.8L111,42.7z"/>
		<path class="st0" d="M122.5,46.9L122.5,46.9c0-2.3,1.7-4.3,4.2-4.3s4.2,2,4.2,4.3v0c0,2.3-1.7,4.3-4.2,4.3S122.5,49.2,122.5,46.9z
			 M130,46.9L130,46.9c0-1.9-1.4-3.5-3.3-3.5c-1.9,0-3.2,1.5-3.2,3.4v0c0,1.9,1.4,3.4,3.3,3.4C128.7,50.3,130,48.8,130,46.9z"/>
		<path class="st0" d="M134.5,46.9L134.5,46.9c0-2.3,1.7-4.3,4.2-4.3c1.4,0,2.3,0.4,3.1,1.1l-0.6,0.7c-0.6-0.6-1.4-0.9-2.5-0.9
			c-1.8,0-3.2,1.6-3.2,3.4v0c0,2,1.3,3.4,3.3,3.4c0.9,0,1.8-0.4,2.4-0.8v-2.1h-2.5v-0.8h3.4v3.3c-0.8,0.7-1.9,1.3-3.3,1.3
			C136.2,51.1,134.5,49.3,134.5,46.9z"/>
		<path class="st0" d="M149.4,42.6h0.9l3.8,8.4h-1l-1-2.2h-4.5l-1,2.2h-1L149.4,42.6z M151.7,48l-1.9-4.2l-1.9,4.2H151.7z"/>
		<path class="st0" d="M157.6,42.7h2.9c2.6,0,4.4,1.8,4.4,4.1v0c0,2.3-1.8,4.1-4.4,4.1h-2.9V42.7z M160.5,50.1
			c2.1,0,3.4-1.4,3.4-3.3v0c0-1.8-1.3-3.3-3.4-3.3h-1.9v6.6H160.5z"/>
		<path class="st0" d="M168.4,46.9L168.4,46.9c0-2.3,1.7-4.3,4.2-4.3s4.2,2,4.2,4.3v0c0,2.3-1.7,4.3-4.2,4.3
			C170.1,51.1,168.4,49.2,168.4,46.9z M175.9,46.9L175.9,46.9c0-1.9-1.4-3.5-3.3-3.5c-1.9,0-3.2,1.5-3.2,3.4v0
			c0,1.9,1.4,3.4,3.3,3.4C174.6,50.3,175.9,48.8,175.9,46.9z"/>
		<path class="st0" d="M180.4,49.8l0.6-0.7c0.9,0.8,1.7,1.2,2.8,1.2c1.1,0,1.8-0.6,1.8-1.4v0c0-0.8-0.4-1.2-2.2-1.6
			c-1.9-0.4-2.8-1-2.8-2.4v0c0-1.3,1.2-2.3,2.7-2.3c1.2,0,2.1,0.3,2.9,1l-0.5,0.7c-0.8-0.6-1.5-0.9-2.4-0.9c-1.1,0-1.8,0.6-1.8,1.3
			v0c0,0.8,0.4,1.2,2.3,1.6c1.8,0.4,2.7,1.1,2.7,2.3v0c0,1.4-1.2,2.3-2.8,2.3C182.5,51.1,181.4,50.7,180.4,49.8z"/>
	</g>
	<path class="st0" d="M73.8,25.3L73.8,25.3l-13.7-7.9l13.7-7.9v0C73.9,9.5,74,9.4,74,9.3c0.2-0.3,0.1-0.6-0.2-0.8L59.3,0.1
		c-0.2-0.1-0.4-0.1-0.6,0L44.4,8.3L30.2,0.1C30,0,29.8,0,29.6,0.1L15,8.5c-0.2,0.1-0.3,0.3-0.3,0.5l0,0v16.5L0.5,33.7l0,0
		c-0.2,0.1-0.3,0.3-0.3,0.5l0,0l0,0v11.2V51c0,0,0,0,0,0l0,0l0,0c0,0.2,0.1,0.4,0.3,0.5l0,0L15,59.9h0c0.1,0.1,0.2,0.1,0.3,0.1
		s0.2,0,0.3-0.1l0,0l12.8-7.4l1.5-0.8l14.3,8.2l0,0l0,0c0.1,0.1,0.2,0.1,0.3,0.1s0.2,0,0.3-0.1l14.6-8.4c0.2-0.1,0.3-0.3,0.3-0.5
		V34.5l14.3-8.2c0.3-0.2,0.4-0.5,0.2-0.8C74,25.4,73.9,25.3,73.8,25.3z M1.4,50.7V35.2l1,0.6l5,2.9v8.1l0.3,0.5l7,4l0,7L1.4,50.7z
		 M58.4,1.6v14.8L45.6,9l7.6-4.4L58.4,1.6z M45,58.4V43.6L57.8,51L45,58.4z M2,34.2l13.4-7.7l4.9,2.8l2.1,1.2l0,0l6.4,3.7l-6.1,3.5
		l-7-4H15l-7,4l-4.4-2.6L2,34.2z M16.4,10.3l5.6,3.3v7.7l-6.1,3.5V10L16.4,10.3z M28.7,17.4l-5.5,3.2v-6.3L28.7,17.4z M45,24.8V10
		l12.8,7.4L45,24.8z M29.9,33.5l-6.7-3.9v-7L36,30L29.9,33.5z M22,29l-5.5-3.2l5.5-3.2V29z M29.3,41.6l-5.5-3.2l5.5-3.2V41.6z
		 M40.6,27.4l-3.4,2l-13.4-7.7l6.1-3.5l13.4,7.7L40.6,27.4z M8.6,38.7l6.7-3.9l6.1,3.5L15,42.1l-0.3,0.5V50l-6.1-3.5V38.7z
		 M15.9,43.6l5.5,3.2L15.9,50V43.6z M22.6,46.1l-6.1-3.5l6.1-3.5l6.1,3.5l-3.3,1.9L22.6,46.1z M30.5,35.2l12.8,7.4L30.5,50V35.2z
		 M43.8,43.6v14.8l-2-1.2L31.1,51L43.8,43.6z M44.4,41.9l-13.4-7.7l13.4-7.7l8.9,5.2l4.4,2.6L44.4,41.9z M43.8,24.8l-12.8-7.4
		L43.8,10V24.8z M30.5,16.4V1.6L43.2,9L30.5,16.4z M29.3,1.6v14.8l-12.1-7L16.5,9l9.3-5.4L29.3,1.6z M22,47.8v6.3L16.5,51L22,47.8z
		 M45.6,42.6l12.8-7.4V50L45.6,42.6z M45.6,25.8l12.8-7.4v14.8L45.6,25.8z M15.9,52l5.5,3.2l-5.5,3.2V52z M23.2,54.2v-7l6.1-3.5v7
		l-2.2,1.3L23.2,54.2z M59.6,33.2V18.4l12.8,7.4L59.6,33.2z M59.6,16.4V1.6L72.4,9L59.6,16.4z"/>
</g>
</svg>
